<svg width="196" height="196" viewBox="0 0 196 196" fill="none" xmlns="http://www.w3.org/2000/svg">
<path fill-rule="evenodd" clip-rule="evenodd" d="M98.23 186C146.72 185.88 186 146.52 186 98C186 96.15 185.94 94.32 185.82 92.5C182.99 46.54 144.87 10.12 98.23 10H98C61.22 10 29.69 32.57 16.56 64.63C16.4867 64.79 16.4222 64.95 16.3578 65.11C16.3255 65.19 16.2933 65.27 16.26 65.35C16.94 65.24 17.63 65.16 18.33 65.11C29.93 64.19 40.37 69.29 46.92 77.59H46.93C57.45 90.96 64.46 99.07 70.72 104.56C83.68 115.93 103.85 108.57 106.5 91.53C107.12 87.57 107.35 83.07 107.35 77.63C107.35 74.6 107.27 71.28 107.16 67.6C107.16 67.4912 107.158 67.38 107.155 67.2675C107.153 67.1526 107.15 67.0363 107.15 66.92C107.15 53.95 118.38 43.6 131.65 45.06C141.92 46.19 150.13 54.58 151.06 64.88C151.7 72.01 148.93 78.51 144.2 82.97C121.16 104.58 119.01 109.75 119.99 141.32H119.98L119.981 141.348C119.991 141.568 120 141.779 120 142C120 154.15 110.15 164 98 164C92.6 164 87.66 162.05 83.83 158.82V158.83C82.3948 157.621 81.0452 156.476 79.7647 155.389C71.0971 148.033 65.593 143.362 58.1 139.92C49.49 135.97 38.25 133.63 16.58 130.7C16.4848 130.691 16.3971 130.675 16.3039 130.658C16.2894 130.655 16.2748 130.653 16.26 130.65C16.342 130.861 16.4273 131.068 16.5122 131.274C16.5722 131.42 16.632 131.565 16.69 131.71C16.7 131.73 16.7075 131.75 16.715 131.77C16.7225 131.79 16.73 131.81 16.74 131.83C25.77 153.5 43.2 170.77 64.97 179.59C75.17 183.72 86.32 186 98 186H98.23Z" fill="white"/>
</svg>
